<svg version="1.2" xmlns="http://www.w3.org/2000/svg" viewBox="0 0 16 12" width="16" height="12"><style></style><path fill-rule="evenodd" d="m13.6 0.9q0 0 0 0 0 0 0 0 0 0 0 0c1.8 2.7 2.7 5.7 2.3 9.1q0 0 0 0 0 0 0 0.1 0 0 0 0 0 0 0 0-0.4 0.3-0.9 0.6-0.5 0.3-1 0.5-0.5 0.3-1 0.5-0.6 0.2-1.1 0.4 0 0 0 0 0 0 0 0 0 0 0 0 0 0 0 0-0.5-0.7-0.9-1.4 0 0 0 0 0 0 0 0 0 0 0 0 0 0 0 0 0 0 0 0 0 0 0 0 0 0 0.1 0 0 0 0 0 0.1-0.1 0.3-0.2 0.1 0 0.3-0.1 0.2-0.1 0.3-0.2 0.2 0 0.3-0.1 0 0 0 0 0-0.1 0-0.1 0 0 0 0 0 0 0 0-0.1-0.1-0.2-0.2 0 0 0 0-0.1 0-0.1 0 0 0 0 0 0 0 0 0c-2.6 1.2-5.4 1.2-8 0q0 0 0 0 0 0-0.1 0 0 0 0 0 0 0 0 0-0.1 0.1-0.2 0.2 0 0 0 0 0 0 0 0 0 0 0 0 0 0 0 0 0 0 0 0 0 0 0 0 0 0.1 0 0.1 0 0 0 0 0.1 0.1 0.3 0.1 0.1 0.1 0.3 0.2 0.1 0.1 0.3 0.1 0.2 0.1 0.3 0.2 0 0 0 0 0 0 0 0 0 0 0 0 0 0 0 0 0.1 0 0.1 0 0 0 0 0 0 0 0 0 0 0 0 0-0.4 0.7-0.9 1.4 0 0 0 0 0 0 0 0 0 0 0 0 0 0 0 0-0.6-0.2-1.1-0.4-0.5-0.2-1-0.5-0.5-0.2-1-0.5-0.5-0.3-0.9-0.6 0 0 0-0.1c-0.3-3 0.3-6 2.3-9.1q0 0 0 0 0 0 0 0 0 0 0 0 0 0 0.1 0 1.5-0.7 3.2-1 0 0 0 0 0 0 0 0 0 0 0.1 0 0 0 0 0 0 0.1 0.1 0.2 0 0.1 0.1 0.2 0 0.1 0.1 0.2 0 0.1 0.1 0.3 0.4-0.1 0.9-0.1 0.4-0.1 0.9-0.1 0.5 0 0.9 0.1 0.5 0 0.9 0.1c0.1-0.3 0.3-0.6 0.4-0.9q0 0 0 0 0.1 0 0.1 0 0 0 0 0 0 0 0 0 0.4 0.1 0.8 0.2 0.4 0.1 0.8 0.2 0.5 0.1 0.9 0.3 0.4 0.1 0.7 0.3 0 0 0.1 0zm-6.8 5.7c0-0.9-0.6-1.6-1.5-1.6-0.8 0-1.4 0.7-1.4 1.6 0 0.9 0.7 1.6 1.4 1.6 0.8 0 1.5-0.7 1.5-1.6zm5.3 0c0-0.9-0.6-1.6-1.4-1.6-0.8 0-1.5 0.7-1.5 1.6 0 0.9 0.7 1.6 1.5 1.6 0.8 0 1.4-0.7 1.4-1.6z"/></svg>
