<svg version="1.2" xmlns="http://www.w3.org/2000/svg" viewBox="0 0 16 13" width="16" height="13" fill="white"><style></style><path  d="m5 13c6.1 0 9.4-5 9.4-9.3q0-0.2 0-0.5 0.2-0.1 0.4-0.3 0.3-0.2 0.5-0.4 0.2-0.2 0.3-0.5 0.2-0.2 0.4-0.5-0.2 0.1-0.5 0.2-0.2 0.1-0.4 0.2-0.3 0-0.5 0.1-0.2 0-0.5 0.1 0.3-0.2 0.5-0.4 0.2-0.2 0.4-0.4 0.2-0.2 0.3-0.5 0.2-0.3 0.3-0.6-0.3 0.2-0.5 0.3-0.3 0.1-0.6 0.2-0.2 0.1-0.5 0.2-0.3 0.1-0.5 0.1c-0.5-0.5-1.2-0.8-1.9-1-0.7-0.1-1.4 0-2.1 0.4-0.6 0.3-1.1 0.9-1.4 1.5-0.3 0.7-0.4 1.4-0.2 2.1q-1 0-2-0.3-0.9-0.2-1.8-0.7-0.8-0.4-1.6-1-0.8-0.6-1.4-1.4-0.3 0.5-0.4 1.2-0.1 0.6 0.1 1.2 0.1 0.6 0.4 1.1 0.4 0.5 0.9 0.9-0.2 0-0.4-0.1-0.2 0-0.3 0-0.2-0.1-0.4-0.2-0.2 0-0.4-0.1 0 0.6 0.2 1.1 0.2 0.6 0.6 1 0.3 0.4 0.8 0.7 0.5 0.3 1.1 0.4-0.1 0.1-0.2 0.1-0.1 0-0.3 0-0.1 0-0.2 0-0.1 0.1-0.2 0.1-0.1 0-0.1-0.1-0.1 0-0.2 0-0.1 0-0.2 0 0 0-0.1 0 0.2 0.5 0.4 0.9 0.3 0.4 0.8 0.7 0.4 0.3 0.9 0.5 0.4 0.2 1 0.2-0.5 0.3-1 0.6-0.4 0.2-1 0.4-0.5 0.2-1 0.3-0.6 0.1-1.1 0.1-0.1 0-0.2 0-0.1 0-0.2 0-0.1 0-0.2 0-0.1-0.1-0.2-0.1 0.6 0.4 1.2 0.7 0.6 0.2 1.2 0.4 0.6 0.2 1.3 0.3 0.7 0.1 1.3 0.1z"/></svg>
